# xmcd
#
# Track frame offsets:
#	150
#	11661
#	29618
#	40225
#	52294
#	62636
#	78932
#	93420
#	107574
#	123487
#	140071
#	152202
#	164037
#	176806
#	195915
#
# Disc length: 2765 seconds
#
# Revision: 0
# Processed by: cddbd v1.4PL0 Copyright (c) Steve Scherf et al.
# Submitted via: EasyCDDAExtractor 4.5.0.2
#
DISCID=d30acb0f
DTITLE=Compilation - Blues Story #20
DYEAR=1998
DGENRE=Blues
TTITLE0=Fats Domino - Fat's Boogie
TTITLE1=Dr John - Mew York City Blues
TTITLE2=Charles Brown - Please Don't Drive Me Away
TTITLE3=Otis Spann - Five Spot
TTITLE4=Floyd Dixon - 450 Pound Woman
TTITLE5=Albert Ammons - Boogie Woogie Stomp
TTITLE6=Meade Lux Lewis - Honky Tonk Train Blues
TTITLE7=Champion Jack Dupree - Nasty Boogie
TTITLE8=Leroy Carr - Blues Before Sunrise
TTITLE9=Johnny Neel - Bless My Soul
TTITLE10=Memphis Slim - Mother Earth
TTITLE11=Professor Longhair - Tipitina
TTITLE12=Big Joe Turner - Roll' Em Pete
TTITLE13=Mike Bloomfield - Eyesight To The Blind
TTITLE14=Amos Milburn - Trouble In Mind
EXTD=
EXTT0=
EXTT1=
EXTT2=
EXTT3=
EXTT4=
EXTT5=
EXTT6=
EXTT7=
EXTT8=
EXTT9=
EXTT10=
EXTT11=
EXTT12=
EXTT13=
EXTT14=
PLAYORDER=
